<?xml version="1.0" standalone="no"?>
<!DOCTYPE svg PUBLIC "-//W3C//DTD SVG 20010904//EN"
 "http://www.w3.org/TR/2001/REC-SVG-20010904/DTD/svg10.dtd">
<svg version="1.0" xmlns="http://www.w3.org/2000/svg"
 width="500.000000pt" height="500.000000pt" viewBox="0 0 500.000000 500.000000"
 preserveAspectRatio="xMidYMid meet">

<g transform="translate(0.000000,500.000000) scale(0.100000,-0.100000)"
fill="#000000" stroke="none">
<path d="M2220 4585 l275 -275 490 0 c520 0 575 -4 715 -50 295 -99 527 -344
622 -658 16 -51 21 -105 25 -227 4 -148 2 -168 -21 -260 -31 -118 -95 -256
-160 -342 -105 -139 -269 -264 -428 -327 -146 -57 -161 -59 -725 -65 l-522 -6
-272 -270 -272 -270 724 -3 c751 -3 876 2 1039 38 182 40 391 135 545 245 117
84 267 234 349 349 77 106 174 296 211 411 55 172 69 265 69 470 0 158 -4 207
-22 292 -67 309 -203 564 -417 778 -212 212 -462 346 -772 417 -96 21 -115 22
-913 25 l-815 4 275 -276z"/>
<path d="M2672 3348 l3 -623 247 -3 c288 -3 349 6 473 67 97 48 187 127 244
215 124 190 135 439 28 641 -46 85 -150 192 -239 243 -126 71 -189 82 -495 82
l-263 0 2 -622z"/>
<path d="M590 1680 c0 -24 87 -76 263 -157 l127 -58 0 -86 c0 -126 34 -308 91
-487 28 -86 59 -187 69 -225 l19 -67 -52 -34 c-107 -68 -292 -189 -295 -191
-11 -9 25 -48 65 -71 81 -48 189 -36 261 30 73 65 80 151 29 306 -41 122 -159
781 -143 797 10 10 56 -15 56 -32 0 -18 17 -20 22 -3 3 8 48 -4 139 -35 74
-25 181 -59 239 -74 l105 -28 8 -85 c4 -47 8 -182 10 -301 l2 -215 -62 -95
c-74 -112 -74 -111 -41 -333 21 -141 33 -176 61 -176 24 0 151 76 170 102 23
30 56 187 57 263 0 45 -6 61 -62 145 l-62 95 -1 115 c-2 148 14 443 24 453 5
5 55 -1 112 -11 57 -11 147 -25 199 -31 168 -20 158 -17 162 -59 2 -28 8 -38
23 -40 11 -2 30 -13 42 -24 l22 -20 3 56 3 56 223 2 c184 3 221 1 217 -11 -6
-16 23 -188 36 -213 5 -10 9 -34 9 -53 0 -39 9 -44 32 -17 15 18 52 223 49
279 -1 31 0 32 57 38 126 14 400 65 482 90 13 4 15 -20 16 -178 1 -157 4 -197
27 -297 14 -63 33 -135 42 -160 16 -44 15 -45 -7 -63 -13 -10 -74 -62 -137
-115 -62 -54 -117 -98 -122 -100 -5 -2 -9 -9 -9 -15 0 -5 2 -8 5 -5 3 3 35 -1
70 -7 65 -13 112 -8 150 13 35 19 93 86 110 126 20 48 14 79 -33 164 l-35 64
-1 295 -1 296 90 27 c50 15 142 47 205 70 161 59 152 57 145 29 -35 -151 -88
-418 -92 -469 -5 -54 -2 -73 15 -107 22 -43 65 -83 88 -83 8 0 11 6 8 15 -5
11 -2 13 10 9 18 -7 22 11 5 22 -8 4 -7 9 2 14 10 7 10 12 -1 25 -11 13 -11
18 -1 24 9 6 8 11 -4 21 -12 10 -13 15 -4 21 9 5 5 17 -14 42 -15 19 -31 55
-37 80 -10 48 5 123 61 307 l22 75 44 -155 c53 -187 54 -236 5 -305 -17 -25
-27 -45 -21 -45 7 0 6 -6 -2 -17 -11 -13 -12 -17 -1 -21 10 -3 10 -9 -3 -28
-9 -14 -11 -24 -5 -24 7 0 9 -8 5 -20 -5 -16 -3 -19 12 -13 16 6 16 5 4 -10
-12 -15 -11 -17 7 -17 27 0 89 71 101 117 13 47 6 90 -55 381 -25 117 -44 217
-42 222 2 6 73 45 158 88 124 62 156 81 158 100 2 12 1 22 -1 22 -3 0 -75 -36
-160 -79 -131 -67 -161 -79 -190 -74 -28 4 -36 1 -50 -20 -20 -31 -157 -86
-388 -156 -548 -165 -1103 -198 -1693 -100 -65 11 -132 27 -148 35 -17 9 -36
13 -43 10 -18 -7 -161 32 -366 100 -157 51 -169 57 -188 90 -26 43 -49 53 -67
29 -13 -17 -16 -17 -66 5 -29 12 -117 55 -196 96 -79 41 -145 74 -148 74 -2 0
-4 -9 -4 -20z m3358 -188 c2 -7 -3 -12 -12 -12 -9 0 -16 7 -16 16 0 17 22 14
28 -4z"/>
<path d="M2165 1038 c3 -24 7 -88 9 -143 l4 -100 -46 -15 c-25 -8 -48 -21 -50
-27 -5 -18 52 -17 86 1 52 27 62 48 71 142 4 49 6 91 5 93 -2 2 -12 -3 -22
-12 -28 -26 -47 -22 -28 5 28 40 15 98 -22 98 -10 0 -12 -10 -7 -42z"/>
<path d="M2741 720 c-2 -63 -4 -152 -5 -197 -2 -46 1 -83 5 -83 5 0 9 11 9 25
0 26 15 34 23 13 6 -15 9 68 7 187 -1 48 -7 88 -15 101 -7 11 -15 31 -18 45
-2 13 -5 -28 -6 -91z"/>
<path d="M2198 757 c-16 -13 -28 -26 -28 -30 0 -4 40 -7 89 -7 103 0 133 -16
151 -78 15 -54 14 -160 -2 -144 -9 9 -59 11 -177 10 l-166 -2 163 -3 c124 -3
163 -6 159 -16 -3 -9 -51 -13 -177 -15 -171 -2 -223 6 -169 27 l24 10 -27 0
c-16 1 -28 -4 -28 -10 0 -5 -5 -7 -11 -3 -13 8 -6 95 11 140 6 16 23 41 36 55
20 21 22 28 11 32 -30 11 -71 -61 -93 -161 -19 -93 -18 -112 5 -112 11 0 23 5
26 10 4 6 13 7 24 1 28 -15 361 -14 379 1 12 10 16 10 19 1 3 -7 13 -13 24
-13 15 0 19 7 19 38 0 59 -27 170 -51 208 -25 41 -89 76 -113 62 -18 -10 -56
-2 -56 13 0 14 -13 10 -42 -14z"/>
<path d="M2278 773 c7 -3 16 -2 19 1 4 3 -2 6 -13 5 -11 0 -14 -3 -6 -6z"/>
<path d="M2770 439 c-15 -26 -9 -32 27 -26 27 4 27 4 5 12 -14 5 -21 13 -18
21 8 21 -2 16 -14 -7z"/>
<path d="M2705 420 c-3 -5 1 -10 9 -10 9 0 16 5 16 10 0 6 -4 10 -9 10 -6 0
-13 -4 -16 -10z"/>
<path d="M2732 345 c0 -16 2 -22 5 -12 2 9 2 23 0 30 -3 6 -5 -1 -5 -18z"/>
<path d="M2722 230 c0 -14 2 -19 5 -12 2 6 2 18 0 25 -3 6 -5 1 -5 -13z"/>
<path d="M2851 204 c0 -11 3 -14 6 -6 3 7 2 16 -1 19 -3 4 -6 -2 -5 -13z"/>
<path d="M2740 48 c0 -4 9 -8 20 -8 11 0 20 4 20 9 0 6 -9 9 -20 8 -11 -1 -20
-5 -20 -9z"/>
</g>
</svg>
